{
  "asset": {
    "copyright": "P Emirreza A",
    "generator": "Khronos glTF Blender I/O v4.2.60",
    "version": "2.0"
  },
  "extensionsUsed": ["KHR_texture_transform"],
  "extensionsRequired": ["KHR_texture_transform"],
  "scene": 0,
  "scenes": [
    {
      "name": "Scene",
      "nodes": [3]
    }
  ],
  "nodes": [
    {
      "mesh": 0,
      "name": "backrest",
      "scale": [147.41873168945312, 147.41873168945312, 147.41873168945312]
    },
    {
      "mesh": 1,
      "name": "legs",
      "scale": [147.41873168945312, 147.41873168945312, 147.41873168945312]
    },
    {
      "mesh": 2,
      "name": "seat",
      "scale": [147.41873168945312, 147.41873168945312, 147.41873168945312]
    },
    {
      "children": [0, 1, 2],
      "name": "Scene",
      "scale": [
        0.009686969220638275, 0.009686969220638275, 0.009686969220638275
      ],
      "translation": [0, -0.0008515612571500242, 0]
    }
  ],
  "materials": [
    {
      "doubleSided": true,
      "name": "fabric",
      "normalTexture": {
        "extensions": {
          "KHR_texture_transform": {
            "offset": [0, -9],
            "scale": [10, 10]
          }
        },
        "index": 0,
        "scale": 0.5099999904632568
      },
      "pbrMetallicRoughness": {
        "baseColorFactor": [
          0.4587640166282654, 0.3736457824707031, 0.23733562231063843, 1
        ],
        "baseColorTexture": {
          "extensions": {
            "KHR_texture_transform": {
              "offset": [0, -9],
              "scale": [10, 10]
            }
          },
          "index": 1
        },
        "metallicFactor": 0,
        "roughnessFactor": 0.9454545974731445
      }
    },
    {
      "doubleSided": true,
      "name": "wood",
      "normalTexture": {
        "index": 2,
        "scale": 0.07999999821186066
      },
      "pbrMetallicRoughness": {
        "baseColorFactor": [
          0.10196078568696976, 0.10196078568696976, 0.10196078568696976, 1
        ],
        "baseColorTexture": {
          "index": 3
        },
        "metallicFactor": 0,
        "roughnessFactor": 0.5
      }
    }
  ],
  "meshes": [
    {
      "name": "Mesh_1",
      "primitives": [
        {
          "attributes": {
            "POSITION": 0,
            "NORMAL": 1,
            "TEXCOORD_0": 2
          },
          "indices": 3,
          "material": 0
        }
      ]
    },
    {
      "name": "Mesh_0",
      "primitives": [
        {
          "attributes": {
            "POSITION": 4,
            "NORMAL": 5,
            "TEXCOORD_0": 6
          },
          "indices": 7,
          "material": 1
        }
      ]
    },
    {
      "name": "Mesh_2",
      "primitives": [
        {
          "attributes": {
            "POSITION": 8,
            "NORMAL": 9,
            "TEXCOORD_0": 10
          },
          "indices": 11,
          "material": 0
        }
      ]
    }
  ],
  "textures": [
    {
      "sampler": 0,
      "source": 0
    },
    {
      "sampler": 0,
      "source": 1
    },
    {
      "sampler": 0,
      "source": 2
    },
    {
      "sampler": 0,
      "source": 3
    }
  ],
  "images": [
    {
      "mimeType": "image/png",
      "name": "Image_3",
      "uri": "Image_3.png"
    },
    {
      "mimeType": "image/png",
      "name": "Image_2",
      "uri": "Image_2.png"
    },
    {
      "mimeType": "image/png",
      "name": "Image_1",
      "uri": "Image_1.png"
    },
    {
      "mimeType": "image/png",
      "name": "Image_0",
      "uri": "Image_0.png"
    }
  ],
  "accessors": [
    {
      "bufferView": 0,
      "componentType": 5126,
      "count": 8916,
      "max": [0.8397229909896851, 0.4775838255882263, 0.41841620206832886],
      "min": [-0.8368479013442993, 0.029352085664868355, -0.3039736747741699],
      "type": "VEC3"
    },
    {
      "bufferView": 1,
      "componentType": 5126,
      "count": 8916,
      "type": "VEC3"
    },
    {
      "bufferView": 2,
      "componentType": 5126,
      "count": 8916,
      "type": "VEC2"
    },
    {
      "bufferView": 3,
      "componentType": 5123,
      "count": 34299,
      "type": "SCALAR"
    },
    {
      "bufferView": 4,
      "componentType": 5126,
      "count": 2116,
      "max": [0.754603385925293, 0.048906732350587845, 0.2983790636062622],
      "min": [-0.7463330030441284, 0.004015147686004639, -0.20358216762542725],
      "type": "VEC3"
    },
    {
      "bufferView": 5,
      "componentType": 5126,
      "count": 2116,
      "type": "VEC3"
    },
    {
      "bufferView": 6,
      "componentType": 5126,
      "count": 2116,
      "type": "VEC2"
    },
    {
      "bufferView": 7,
      "componentType": 5123,
      "count": 2784,
      "type": "SCALAR"
    },
    {
      "bufferView": 8,
      "componentType": 5126,
      "count": 127331,
      "max": [0.8975220322608948, 0.5281848907470703, 0.47401541471481323],
      "min": [-0.8947157263755798, 0.11401092261075974, -0.23191820085048676],
      "type": "VEC3"
    },
    {
      "bufferView": 9,
      "componentType": 5126,
      "count": 127331,
      "type": "VEC3"
    },
    {
      "bufferView": 10,
      "componentType": 5126,
      "count": 127331,
      "type": "VEC2"
    },
    {
      "bufferView": 11,
      "componentType": 5125,
      "count": 654234,
      "type": "SCALAR"
    }
  ],
  "bufferViews": [
    {
      "buffer": 0,
      "byteLength": 106992,
      "byteOffset": 0,
      "target": 34962
    },
    {
      "buffer": 0,
      "byteLength": 106992,
      "byteOffset": 106992,
      "target": 34962
    },
    {
      "buffer": 0,
      "byteLength": 71328,
      "byteOffset": 213984,
      "target": 34962
    },
    {
      "buffer": 0,
      "byteLength": 68598,
      "byteOffset": 285312,
      "target": 34963
    },
    {
      "buffer": 0,
      "byteLength": 25392,
      "byteOffset": 353912,
      "target": 34962
    },
    {
      "buffer": 0,
      "byteLength": 25392,
      "byteOffset": 379304,
      "target": 34962
    },
    {
      "buffer": 0,
      "byteLength": 16928,
      "byteOffset": 404696,
      "target": 34962
    },
    {
      "buffer": 0,
      "byteLength": 5568,
      "byteOffset": 421624,
      "target": 34963
    },
    {
      "buffer": 0,
      "byteLength": 1527972,
      "byteOffset": 427192,
      "target": 34962
    },
    {
      "buffer": 0,
      "byteLength": 1527972,
      "byteOffset": 1955164,
      "target": 34962
    },
    {
      "buffer": 0,
      "byteLength": 1018648,
      "byteOffset": 3483136,
      "target": 34962
    },
    {
      "buffer": 0,
      "byteLength": 2616936,
      "byteOffset": 4501784,
      "target": 34963
    }
  ],
  "samplers": [
    {
      "magFilter": 9729,
      "minFilter": 9987
    }
  ],
  "buffers": [
    {
      "byteLength": 7118720,
      "uri": "MILANO.bin"
    }
  ]
}
